<?xml version="1.0" encoding="UTF-8" standalone="no"?>
<svg width="128px" height="128px" viewBox="0 0 128 128" version="1.1" xmlns="http://www.w3.org/2000/svg" xmlns:xlink="http://www.w3.org/1999/xlink" xmlns:sketch="http://www.bohemiancoding.com/sketch/ns">
    <!-- Generator: Sketch 3.4.3 (16618) - http://www.bohemiancoding.com/sketch -->
    <title>logo_afn1</title>
    <desc>Created with Sketch.</desc>
    <defs>
        <path id="path-1" d="M0,0.303044776 L119.843509,0.303044776 L119.843509,94 L0,94 L0,0.303044776 Z"></path>
    </defs>
    <g id="Page-1" stroke="none" stroke-width="1" fill="none" fill-rule="evenodd" sketch:type="MSPage">
        <g id="logo_afn1" sketch:type="MSArtboardGroup">
            <path d="M9.40757895,98.2468657 L3.99985965,110.982463 L6.42301754,110.982463 L10.6195088,100.678239 L12.6237193,105.460313 L10.0581053,105.460313 L9.24687719,107.508672 L13.4791579,107.508672 L14.9310877,110.982463 L17.4700351,110.982463 L11.9465263,98.2468657 L9.40757895,98.2468657 Z" id="Fill-1" fill="#000000" sketch:type="MSShapeGroup"></path>
            <g id="Group-32" sketch:type="MSLayerGroup" transform="translate(4.000000, 17.000000)">
                <path d="M23.2257544,84.6312164 L23.2257544,93.9821119 L21.3815439,93.9821119 L21.0966316,92.7888731 C20.0215439,93.5850672 18.881193,93.9821119 17.6755789,93.9821119 C15.7632982,93.9821119 14.806807,92.851306 14.806807,90.5889925 L14.806807,84.6312164 L17.1675088,84.6312164 L17.1675088,90.5265597 C17.1675088,91.5598582 17.6187368,92.0761567 18.5218947,92.0761567 C19.2882105,92.0761567 20.0685614,91.7710075 20.8650526,91.159306 L20.8650526,84.6312164 L23.2257544,84.6312164 Z" id="Fill-2" fill="#000000" sketch:type="MSShapeGroup"></path>
                <path d="M25.3193684,83.1172552 L27.0653333,83.1172552 L27.4218246,84.6310761 L29.7741053,84.6310761 L29.7741053,86.5012552 L27.6800702,86.5012552 L27.6800702,90.8028075 C27.6800702,91.6754642 28.057614,92.1117925 28.812,92.1117925 L29.7741053,92.1117925 L29.7741053,93.9819716 L27.6716491,93.9819716 C26.1032281,93.9819716 25.3193684,93.1422851 25.3193684,91.4622104 L25.3193684,83.1172552 Z" id="Fill-4" fill="#000000" sketch:type="MSShapeGroup"></path>
                <path d="M35.5647018,92.2010224 C37.0790877,92.2010224 37.8362807,91.2238433 37.8362807,89.2708881 C37.8362807,87.3649328 37.0790877,86.412306 35.5647018,86.412306 C34.0503158,86.412306 33.2931228,87.3649328 33.2931228,89.2708881 C33.2931228,91.2238433 34.0503158,92.2010224 35.5647018,92.2010224 M30.9317193,89.3066642 C30.9317193,86.171694 32.4762807,84.6045597 35.5647018,84.6045597 C38.6531228,84.6045597 40.1976842,86.171694 40.1976842,89.3066642 C40.1976842,92.4353209 38.6531228,93.9996493 35.5647018,93.9996493 C32.4882105,93.9996493 30.9436491,92.4353209 30.9317193,89.3066642" id="Fill-6" fill="#000000" sketch:type="MSShapeGroup"></path>
                <path d="M50.5674386,81.2470761 L50.5674386,83.277897 L44.5449825,83.277897 L44.5449825,86.4837179 L50.2642807,86.4837179 L50.2642807,88.594509 L44.5183158,88.594509 L44.5183158,93.9819716 L42.2018246,93.9819716 L42.2018246,81.2470761 L50.5674386,81.2470761 Z" id="Fill-8" fill="#000000" sketch:type="MSShapeGroup"></path>
                <mask id="mask-2" sketch:name="Clip 11" fill="white">
                    <use xlink:href="#path-1"></use>
                </mask>
                <g id="Clip-11"></g>
                <path d="M54.7101754,93.9824627 L52.3494737,93.9824627 L52.3494737,84.6315672 L54.7101754,84.6315672 L54.7101754,93.9824627 Z M54.7101754,83.1170448 L52.3494737,83.1170448 L52.3494737,81.2468657 L54.7101754,81.2468657 L54.7101754,83.1170448 Z" id="Fill-10" fill="#000000" sketch:type="MSShapeGroup" mask="url(#mask-2)"></path>
                <path d="M59.2982456,93.9824627 L56.9375439,93.9824627 L56.9375439,81.2475672 L59.2982456,81.2475672 L59.2982456,93.9824627 Z" id="Fill-12" fill="#000000" sketch:type="MSShapeGroup" mask="url(#mask-2)"></path>
                <path d="M63.4409123,88.4963 L67.4317895,88.4963 L67.4317895,88.4247478 C67.4317895,87.130494 66.7784561,86.4837179 65.4724912,86.4837179 C64.2247719,86.4837179 63.5475789,87.1550463 63.4409123,88.4963 M65.4724912,84.6310761 C68.3110877,84.6310761 69.7307368,86.0796582 69.7307368,88.9775239 C69.7307368,89.3633448 69.7040702,89.7484642 69.6507368,90.1349866 L63.4409123,90.1349866 C63.4409123,91.453091 64.4086316,92.1117925 66.3454737,92.1117925 C67.2893333,92.1117925 68.2338947,92.022703 69.1784561,91.8445239 L69.1784561,93.714703 C68.3524912,93.8928821 67.3489825,93.9819716 66.1672281,93.9819716 C62.7756491,93.9819716 61.0802105,92.3881806 61.0802105,89.199897 C61.0802105,86.1540164 62.5440702,84.6310761 65.4724912,84.6310761" id="Fill-13" fill="#000000" sketch:type="MSShapeGroup" mask="url(#mask-2)"></path>
                <path d="M71.7262456,93.9821821 L71.7262456,81.2472866 L74.0869474,81.2472866 L80.8132632,90.5266299 L80.8132632,81.2472866 L83.0855439,81.2472866 L83.0855439,93.9821821 L80.7241404,93.9821821 L73.9978246,84.5064209 L73.9978246,93.9821821 L71.7262456,93.9821821 Z" id="Fill-14" fill="#000000" sketch:type="MSShapeGroup" mask="url(#mask-2)"></path>
                <path d="M89.1522807,89.885606 C88.0175439,89.885606 87.4505263,90.2721284 87.4505263,91.0430687 C87.4505263,91.8750388 87.925614,92.2903224 88.8757895,92.2903224 C89.6603509,92.2903224 90.3873684,92.046203 91.0589474,91.5600687 L91.0589474,90.0637851 C90.4652632,89.9445313 89.8294737,89.885606 89.1522807,89.885606 M85.0898246,91.0697254 C85.0898246,89.2114716 86.4442105,88.2826955 89.1522807,88.2826955 C89.7880702,88.2826955 90.4231579,88.3416209 91.0589474,88.4608746 L91.0589474,87.7572776 C91.0589474,86.9196955 90.4561404,86.501606 89.2505263,86.501606 C88.2287719,86.501606 87.0940351,86.6496209 85.8470175,86.9470537 L85.8470175,85.0768746 C87.0940351,84.7794418 88.2287719,84.6314269 89.2505263,84.6314269 C92.0301754,84.6314269 93.4196491,85.6591134 93.4196491,87.7123821 L93.4196491,93.9823224 L92.0477193,93.9823224 L91.2105263,93.1447403 C90.3964912,93.7024269 89.4996491,93.9823224 88.52,93.9823224 C86.2329825,93.9823224 85.0898246,93.0114567 85.0898246,91.0697254" id="Fill-15" fill="#000000" sketch:type="MSShapeGroup" mask="url(#mask-2)"></path>
                <path d="M95.6469474,93.9821821 L95.6469474,84.6312866 L97.473614,84.6312866 L97.7494035,85.9851672 C98.5865965,85.0816448 99.593614,84.6312866 100.769754,84.6312866 C101.945895,84.6312866 102.750807,85.0584955 103.183789,85.9136149 C104.140281,85.0584955 105.140982,84.6312866 106.186596,84.6312866 C108.336772,84.6312866 109.411158,85.815406 109.411158,88.1843463 L109.411158,93.9821821 L107.050456,93.9821821 L107.050456,88.0952567 C107.050456,87.0563463 106.581684,86.5372418 105.642737,86.5372418 C104.942386,86.5372418 104.268,86.8522119 103.620281,87.4807493 L103.620281,93.9821821 L101.259579,93.9821821 L101.259579,88.1219134 C101.259579,87.0661672 100.825895,86.5372418 99.9592281,86.5372418 C99.2701053,86.5372418 98.6195789,86.8522119 98.0076491,87.4807493 L98.0076491,93.9821821 L95.6469474,93.9821821 Z" id="Fill-16" fill="#000000" sketch:type="MSShapeGroup" mask="url(#mask-2)"></path>
                <path d="M113.553965,88.4963 L117.544842,88.4963 L117.544842,88.4247478 C117.544842,87.130494 116.891509,86.4837179 115.585544,86.4837179 C114.337825,86.4837179 113.660632,87.1550463 113.553965,88.4963 M115.585544,84.6310761 C118.42414,84.6310761 119.843789,86.0796582 119.843789,88.9775239 C119.843789,89.3633448 119.817123,89.7484642 119.763789,90.1349866 L113.553965,90.1349866 C113.553965,91.453091 114.521684,92.1117925 116.458526,92.1117925 C117.402386,92.1117925 118.346947,92.022703 119.291509,91.8445239 L119.291509,93.714703 C118.465544,93.8928821 117.462035,93.9819716 116.280281,93.9819716 C112.888702,93.9819716 111.193263,92.3881806 111.193263,89.199897 C111.193263,86.1540164 112.657123,84.6310761 115.585544,84.6310761" id="Fill-17" fill="#000000" sketch:type="MSShapeGroup" mask="url(#mask-2)"></path>
                <path d="M86.9652632,25.1482269 L96.8775439,35.056809 L86.9652632,44.965391 L86.9652632,25.1482269 Z" id="Fill-18" fill="#FFD916" sketch:type="MSShapeGroup" mask="url(#mask-2)"></path>
                <path d="M74.5396491,12.7268985 L82.6126316,20.7968687 L82.6126316,49.3167493 L74.5396491,57.3867194 L74.5396491,12.7268985 Z" id="Fill-19" fill="#FFB500" sketch:type="MSShapeGroup" mask="url(#mask-2)"></path>
                <path d="M82.6125614,49.3168194 L74.5395789,57.3867896 L74.5395789,35.0568791 L82.6125614,49.3168194 Z" id="Fill-20" fill="#C58C00" sketch:type="MSShapeGroup" mask="url(#mask-2)"></path>
                <path d="M74.5396491,12.7268985 L82.6126316,20.7968687 L74.5396491,35.056809 L74.5396491,12.7268985 Z" id="Fill-21" fill="#FFC73F" sketch:type="MSShapeGroup" mask="url(#mask-2)"></path>
                <path d="M62.113614,0.302764179 L70.1865965,8.3755403 L70.1865965,61.7380776 L62.113614,69.8108537 L62.113614,0.302764179 Z" id="Fill-22" fill="#FF6600" sketch:type="MSShapeGroup" mask="url(#mask-2)"></path>
                <path d="M70.1865263,61.7382179 L62.1135439,69.810994 L62.1135439,35.0569493 L70.1865263,61.7382179 Z" id="Fill-23" fill="#B84900" sketch:type="MSShapeGroup" mask="url(#mask-2)"></path>
                <path d="M62.113614,0.302764179 L70.1865965,8.3755403 L62.113614,35.056809 L62.113614,0.302764179 Z" id="Fill-24" fill="#FFA231" sketch:type="MSShapeGroup" mask="url(#mask-2)"></path>
                <path d="M37.2698947,20.7967985 L45.3456842,12.7268284 L45.3456842,57.3866493 L37.2698947,49.3166791 L37.2698947,20.7967985 Z" id="Fill-25" fill="#F61F09" sketch:type="MSShapeGroup" mask="url(#mask-2)"></path>
                <path d="M37.2698947,20.7967985 L45.3456842,12.7268284 L45.3456842,35.0567388 L37.2698947,20.7967985 Z" id="Fill-26" fill="#FD5646" sketch:type="MSShapeGroup" mask="url(#mask-2)"></path>
                <path d="M45.3458947,57.3867194 L37.2701053,49.3167493 L45.3458947,35.056809 L45.3458947,57.3867194 Z" id="Fill-27" fill="#A81606" sketch:type="MSShapeGroup" mask="url(#mask-2)"></path>
                <path d="M49.6989474,8.3754 L57.7607018,0.313847761 L57.7607018,69.7994896 L49.6989474,61.7379373 L49.6989474,8.3754 Z" id="Fill-28" fill="#FF4200" sketch:type="MSShapeGroup" mask="url(#mask-2)"></path>
                <path d="M49.6989474,8.3754 L57.7719298,0.302623881 L57.7719298,35.0566687 L49.6989474,8.3754 Z" id="Fill-29" fill="#FA7900" sketch:type="MSShapeGroup" mask="url(#mask-2)"></path>
                <path d="M57.7718596,69.8108537 L49.6988772,61.7380776 L57.7718596,35.056809 L57.7718596,69.8108537 Z" id="Fill-30" fill="#BD3000" sketch:type="MSShapeGroup" mask="url(#mask-2)"></path>
                <path d="M32.8784561,44.965391 L22.9661754,35.056809 L32.8784561,25.1482269 L32.8784561,44.965391 Z" id="Fill-31" fill="#FD0E16" sketch:type="MSShapeGroup" mask="url(#mask-2)"></path>
            </g>
        </g>
    </g>
</svg>