<?xml version="1.0" encoding="UTF-8" standalone="no"?>
<svg width="128px" height="128px" viewBox="0 0 128 128" version="1.1" xmlns="http://www.w3.org/2000/svg" xmlns:xlink="http://www.w3.org/1999/xlink" xmlns:sketch="http://www.bohemiancoding.com/sketch/ns">
    <!-- Generator: Sketch 3.4.3 (16618) - http://www.bohemiancoding.com/sketch -->
    <title>logo_afn2</title>
    <desc>Created with Sketch.</desc>
    <defs></defs>
    <g id="Page-1" stroke="none" stroke-width="1" fill="none" fill-rule="evenodd" sketch:type="MSPage">
        <g id="logo_afn2" sketch:type="MSArtboardGroup">
            <path d="M102.1988,78.5823 L116.3238,64.4563 L102.1988,50.3323 L102.1988,78.5823 Z" id="Fill-1" fill="#FFD916" sketch:type="MSShapeGroup"></path>
            <path d="M84.4922,32.625 L95.9962,44.129 L95.9962,84.785 L84.4922,96.289 L84.4922,32.625 Z" id="Fill-2" fill="#FFB500" sketch:type="MSShapeGroup"></path>
            <path d="M95.9961,84.7851 L84.4921,96.2891 L84.4921,64.4571 L95.9961,84.7851 Z" id="Fill-3" fill="#C58C00" sketch:type="MSShapeGroup"></path>
            <path d="M84.4922,32.625 L95.9962,44.129 L84.4922,64.457 L84.4922,32.625 Z" id="Fill-4" fill="#FFC73F" sketch:type="MSShapeGroup"></path>
            <path d="M66.7847,14.9136 L66.7847,113.9996 L78.2897,102.4926 L78.2897,26.4216 L66.7847,14.9136 Z" id="Fill-5" fill="#FF6600" sketch:type="MSShapeGroup"></path>
            <path d="M66.7847,114 L78.2897,102.493 L66.7847,64.457 L66.7847,114 Z" id="Fill-6" fill="#B84900" sketch:type="MSShapeGroup"></path>
            <path d="M66.7847,14.9136 L66.7847,64.4566 L78.2897,26.4216 L66.7847,14.9136 Z" id="Fill-7" fill="#FFA231" sketch:type="MSShapeGroup"></path>
            <path d="M31.3828,44.1289 L42.8908,32.6249 L42.8908,96.2889 L31.3828,84.7849 L31.3828,44.1289 Z" id="Fill-8" fill="#F61F09" sketch:type="MSShapeGroup"></path>
            <path d="M31.3828,44.1289 L42.8908,32.6249 L42.8908,64.4569 L31.3828,44.1289 Z" id="Fill-9" fill="#FD5646" sketch:type="MSShapeGroup"></path>
            <path d="M42.8911,96.289 L31.3831,84.785 L42.8911,64.457 L42.8911,96.289 Z" id="Fill-10" fill="#A81606" sketch:type="MSShapeGroup"></path>
            <path d="M49.0943,26.4219 L49.0943,102.4929 L60.5823,113.9839 L60.5823,14.9299 L49.0943,26.4219 Z" id="Fill-11" fill="#FF4200" sketch:type="MSShapeGroup"></path>
            <path d="M60.5981,14.9136 L49.0941,26.4216 L60.5981,64.4566 L60.5981,14.9136 Z" id="Fill-12" fill="#FA7900" sketch:type="MSShapeGroup"></path>
            <path d="M49.0943,102.4926 L60.5983,113.9996 L60.5983,64.4566 L49.0943,102.4926 Z" id="Fill-13" fill="#BD3000" sketch:type="MSShapeGroup"></path>
            <path d="M11,64.4568 L25.125,78.5828 L25.125,50.3318 L11,64.4568 Z" id="Fill-14" fill="#FD0E16" sketch:type="MSShapeGroup"></path>
        </g>
    </g>
</svg>